<?xml version="1.0" encoding="UTF-8"?>
<!DOCTYPE svg PUBLIC "-//W3C//DTD SVG 1.1//EN" "http://www.w3.org/Graphics/SVG/1.1/DTD/svg11.dtd">
<!-- Creator: CorelDRAW 2021 (64-Bit) -->
<svg xmlns="http://www.w3.org/2000/svg" xml:space="preserve" width="70.8661in" height="20.0787in" version="1.1" style="shape-rendering:geometricPrecision; text-rendering:geometricPrecision; image-rendering:optimizeQuality; fill-rule:evenodd; clip-rule:evenodd"
viewBox="0 0 70866.14 20078.74"
 xmlns:xlink="http://www.w3.org/1999/xlink"
 xmlns:xodm="http://www.corel.com/coreldraw/odm/2003">
 <defs>
  <style type="text/css">
   <![CDATA[
    .fil2 {fill:#FEFEFE}
    .fil1 {fill:#FEFEFE;fill-rule:nonzero}
    .fil0 {fill:url(#id0)}
   ]]>
  </style>
  <linearGradient id="id0" gradientUnits="userSpaceOnUse" x1="-6.37" y1="15088.19" x2="21796.98" y2="11846.06">
   <stop offset="0" style="stop-opacity:1; stop-color:#00AFEF"/>
   <stop offset="1" style="stop-opacity:1; stop-color:#FFF212"/>
  </linearGradient>
 </defs>
 <g id="Layer_x0020_1">
  <metadata id="CorelCorpID_0Corel-Layer"/>
  <g id="_2357328981136">
   <path class="fil0" d="M3472 2375.88c1022.06,0 1850.66,828.6 1850.66,1850.66 0,1022.02 -828.6,1850.62 -1850.66,1850.62 -1022.02,0 -1850.62,-828.59 -1850.62,-1850.62 0,-1022.06 828.59,-1850.66 1850.62,-1850.66zm14271.69 14523l0 -9494.36 -1247.31 0 -1900.76 0 -824.98 0 -422.34 0 0 8247.05 -1800.02 0 0 -9207.52 0 -1247.31 -1247.31 0 -1649.22 0 -1076.51 0 -170.8 0 0 10454.84 -1810.28 0 0 -6999.73 0 -1247.31 -1247.31 0 -1900.76 0 -1081.41 0 -165.9 0 0 8247.05 0 1247.31 1247.31 0 1900.76 0 0 1800.75 0 1247.31 1247.31 0 7754.15 0 0 30.41 1247.31 0 0 -3078.47 1900.76 0 1247.31 0zm-3148.07 -1247.31l1900.76 0 0 -6999.73 -1900.76 0 0 6999.73zm-1247.31 1247.31l-1800.02 0 -1015.24 0 -232.07 0 0 -10454.83 -1649.22 0 0 10454.83 -32.6 0 -1214.71 0 -1810.28 0 0 1800.75 7754.15 0 0 -1800.75zm-10902.22 -1247.31l1900.76 0 0 -6999.73 -1900.76 0 0 6999.73zm13095.4 -13275.69c1022.07,0 1850.66,828.6 1850.66,1850.66 0,1022.02 -828.59,1850.62 -1850.66,1850.62 -1022.02,0 -1850.62,-828.59 -1850.62,-1850.62 0,-1022.06 828.6,-1850.66 1850.62,-1850.66zm-5994.47 -2273.22c1022.02,0 1850.67,828.59 1850.67,1850.61 0,1022.07 -828.65,1850.67 -1850.67,1850.67 -1022.02,0 -1850.66,-828.6 -1850.66,-1850.67 0,-1022.02 828.64,-1850.61 1850.66,-1850.61z"/>
   <polygon class="fil1" points="21550.85,15525.13 26184.76,15525.13 26184.76,14291.74 22992.68,14291.74 22992.68,12632.26 25241.64,12623.23 25241.64,11389.89 22992.68,11389.89 22992.68,10011.56 26075.87,10011.56 26075.87,8778.17 21550.85,8778.17 "/>
   <polygon class="fil1" points="30428.72,15525.13 32015.71,15525.13 30192.98,12070.03 31906.91,8778.17 30319.87,8778.17 29403.99,10673.48 28488.12,8778.17 26901.12,8778.17 28615.05,12070.03 26792.32,15525.13 28379.32,15525.13 29403.99,13430.31 "/>
   <path class="fil1" d="M37149.67 12360.21c427.78,-350.63 642.36,-858.5 642.36,-1523.48 0,-374.76 -61.91,-693.74 -185.87,-956.68 -122.45,-262.98 -293.25,-476.05 -509.39,-639.34 -217.6,-163.25 -471.52,-281.16 -763.16,-353.6 -293.25,-72.58 -610.63,-108.94 -953.7,-108.94l-2484.78 0 0 6746.96 1441.88 0 0 -2648.03 1030.76 0c772.32,0 1366.28,-172.27 1781.89,-516.89zm-1045.83 -2153.76c80.13,58.94 140.53,140.63 182.84,244.94 42.31,102.71 63.47,237.29 63.47,403.47 0,164.71 -30.18,299.29 -90.57,403.61 -60.54,102.71 -142.14,182.85 -241.92,238.76 -99.69,55.91 -216.14,95.2 -346.09,114.85 -129.96,21.15 -269.03,31.73 -414.05,31.73l-920.5 0 0 -1632.24 920.5 0c394.44,0 676.98,64.93 846.32,194.89z"/>
   <polygon class="fil2" points="40826.08,10011.47 43559.52,10011.47 43559.52,8778.17 40826.08,8778.17 "/>
   <polygon class="fil2" points="40826.08,12631.8 42725.19,12623.19 42725.19,11389.89 40826.08,11389.89 "/>
   <polygon class="fil2" points="40826.08,15525.09 43668.36,15525.09 43668.36,14291.78 40826.08,14291.78 "/>
   <polygon class="fil2" points="39034.31,15525.09 40475.82,15525.09 40475.82,8778.17 39034.31,8778.17 "/>
   <polygon class="fil1" points="48927.74,15525.13 50278.96,15525.13 50278.96,8778.17 48900.54,8778.17 48900.54,13004.13 46461.18,8778.17 45001.21,8778.17 45001.21,15525.13 46379.63,15525.13 46379.63,11099.7 "/>
   <path class="fil1" d="M55846.88 15525.13l1115.34 0 0 -3491.32 -2657.05 0 0 1233.26 1242.41 0c-30.18,300.76 -145.07,553.11 -344.54,755.65 -229.78,240.31 -532.1,359.74 -906.85,359.74 -273.65,0 -497.34,-72.48 -671.07,-219.11 -173.82,-146.58 -306.8,-329.52 -402,-548.72 -93.73,-219.07 -158.76,-456.36 -191.96,-708.85 -33.29,-252.36 -49.91,-483.56 -49.91,-690.63 0,-201.03 13.6,-433.83 40.8,-698.23 27.24,-266 86.18,-516.89 176.89,-754.19 90.67,-238.89 219.07,-438.36 385.38,-600.05 166.27,-161.69 388.4,-241.82 666.5,-241.82 350.63,0 615.16,80.13 793.47,240.27 178.36,160.22 337.07,394.45 476.05,702.85l1342.19 -353.74c-120.94,-362.62 -263.07,-657.43 -426.23,-884.14 -163.24,-226.72 -356.67,-408.09 -580.36,-545.56 -441.38,-261.52 -915.96,-393.03 -1423.75,-393.03 -538.05,0 -993.03,98.31 -1363.3,294.76 -370.31,196.49 -669.47,459.43 -894.72,788.99 -225.16,329.43 -386.94,710.32 -486.63,1142.59 -98.27,432.27 -148.18,887.16 -148.18,1364.77 0,435.25 49.91,853.92 149.65,1256.02 99.78,402 258.45,757.11 476.14,1065.52 217.6,308.27 498.67,554.67 843.3,738.98 344.63,184.4 761.74,276.67 1251.39,276.67 326.54,0 613.65,-45.33 861.52,-136.05 247.87,-89.2 489.7,-249.43 725.52,-477.61l0 522.98z"/>
   <polygon class="fil1" points="58531.04,15525.13 63164.95,15525.13 63164.95,14291.74 59972.87,14291.74 59972.87,12632.26 62221.83,12623.23 62221.83,11389.89 59972.87,11389.89 59972.87,10011.56 63056.06,10011.56 63056.06,8778.17 58531.04,8778.17 "/>
   <path class="fil1" d="M68060.25 15525.13l1606.59 0 -1463.04 -2965.46c373.34,-132.98 660.5,-346.09 861.52,-639.29 200.98,-293.2 302.22,-639.3 302.22,-1038.28 0,-344.63 -52.89,-648.41 -158.62,-911.39 -104.31,-262.94 -252.4,-482.14 -442.85,-657.43 -188.93,-175.38 -420.13,-308.41 -690.76,-399.07 -270.49,-90.67 -571.25,-136.05 -903.78,-136.05l-2700.83 0 0 6746.96 1441.88 0 0 -2666.16 920.46 0 1227.21 2666.16zm-379.38 -5309.57c78.62,65.02 139.07,151.11 181.38,256.98 42.31,107.24 63.47,237.29 63.47,389.87 0,172.36 -33.2,308.36 -99.74,408.09 -66.49,101.24 -154.13,178.31 -262.93,231.2 -108.89,52.98 -232.8,87.65 -371.87,101.29 -139.02,15.16 -278.09,22.71 -417.07,22.71l-861.52 0 0 -1614.15 1006.54 0c350.72,0 604.54,67.95 761.74,204z"/>
  </g>
 </g>
</svg>
