<?xml version="1.0" encoding="UTF-8"?>
<!DOCTYPE svg PUBLIC "-//W3C//DTD SVG 1.1//EN" "http://www.w3.org/Graphics/SVG/1.1/DTD/svg11.dtd">
<!-- Creator: CorelDRAW 2021 (64-Bit) -->
<svg xmlns="http://www.w3.org/2000/svg" xml:space="preserve" width="68.8976in" height="20.0787in" version="1.1" style="shape-rendering:geometricPrecision; text-rendering:geometricPrecision; image-rendering:optimizeQuality; fill-rule:evenodd; clip-rule:evenodd"
viewBox="0 0 68897.64 20078.74"
 xmlns:xlink="http://www.w3.org/1999/xlink"
 xmlns:xodm="http://www.corel.com/coreldraw/odm/2003">
 <defs>
  <style type="text/css">
   <![CDATA[
    .fil2 {fill:#606062}
    .fil1 {fill:#606062;fill-rule:nonzero}
    .fil0 {fill:url(#id0)}
   ]]>
  </style>
  <linearGradient id="id0" gradientUnits="userSpaceOnUse" x1="-967.28" y1="15086.76" x2="20821.7" y2="11846.76">
   <stop offset="0" style="stop-opacity:1; stop-color:#00AFEF"/>
   <stop offset="1" style="stop-opacity:1; stop-color:#FFF212"/>
  </linearGradient>
 </defs>
 <g id="Layer_x0020_1">
  <metadata id="CorelCorpID_0Corel-Layer"/>
  <g id="_1851445834912">
   <path class="fil0" d="M2508.8 2382.81c1021.39,0 1849.44,828.05 1849.44,1849.44 0,1021.35 -828.05,1849.4 -1849.44,1849.4 -1021.35,0 -1849.4,-828.05 -1849.4,-1849.4 0,-1021.39 828.05,-1849.44 1849.4,-1849.44zm14262.3 14513.44l0 -9488.11 -1246.49 0 -1899.51 0 -824.43 0 -422.06 0 0 8241.61 -1798.83 0 0 -9201.46 0 -1246.49 -1246.49 0 -1648.14 0 -1075.8 0 -170.69 0 0 10447.95 -1809.08 0 0 -6995.12 0 -1246.49 -1246.49 0 -1899.51 0 -1080.7 0 -165.79 0 0 8241.61 0 1246.5 1246.49 0 1899.51 0 0 1799.56 0 1246.49 1246.49 0 7749.04 0 0 30.39 1246.49 0 0 -3076.44 1899.51 0 1246.49 0zm-3146 -1246.5l1899.51 0 0 -6995.12 -1899.51 0 0 6995.12zm-1246.49 1246.5l-1798.83 0 -1014.57 0 -231.92 0 0 -10447.95 -1648.14 0 0 10447.95 -32.58 0 -1213.91 0 -1809.08 0 0 1799.56 7749.04 0 0 -1799.56zm-10895.04 -1246.5l1899.51 0 0 -6995.12 -1899.51 0 0 6995.12zm13086.78 -13266.94c1021.39,0 1849.44,828.05 1849.44,1849.44 0,1021.35 -828.05,1849.4 -1849.44,1849.4 -1021.35,0 -1849.4,-828.05 -1849.4,-1849.4 0,-1021.39 828.05,-1849.44 1849.4,-1849.44zm-5990.52 -2271.73c1021.35,0 1849.44,828.05 1849.44,1849.4 0,1021.39 -828.1,1849.44 -1849.44,1849.44 -1021.35,0 -1849.44,-828.05 -1849.44,-1849.44 0,-1021.35 828.1,-1849.4 1849.44,-1849.4z"/>
   <polygon class="fil1" points="20575.74,15523.41 25206.6,15523.41 25206.6,14290.83 22016.63,14290.83 22016.63,12632.44 24264.1,12623.43 24264.1,11390.89 22016.63,11390.89 22016.63,10013.47 25097.78,10013.47 25097.78,8780.89 20575.74,8780.89 "/>
   <polygon class="fil1" points="29447.76,15523.41 31033.71,15523.41 29212.18,12070.58 30924.98,8780.89 29338.99,8780.89 28423.71,10674.95 27508.44,8780.89 25922.49,8780.89 27635.29,12070.58 25813.76,15523.41 27399.71,15523.41 28423.71,13429.97 "/>
   <path class="fil1" d="M36164.29 12360.57c427.5,-350.39 641.94,-857.93 641.94,-1522.48 0,-374.51 -61.87,-693.28 -185.74,-956.04 -122.37,-262.81 -293.06,-475.74 -509.05,-638.92 -217.46,-163.14 -471.2,-280.98 -762.66,-353.37 -293.06,-72.53 -610.23,-108.87 -953.07,-108.87l-2483.15 0 0 6742.52 1440.93 0 0 -2646.28 1030.09 0c771.81,0 1365.38,-172.16 1780.71,-516.56zm-1045.14 -2152.34c80.08,58.89 140.44,140.53 182.72,244.78 42.28,102.65 63.43,237.14 63.43,403.2 0,164.6 -30.16,299.09 -90.52,403.34 -60.5,102.65 -142.04,182.73 -241.76,238.6 -99.62,55.87 -216,95.14 -345.87,114.77 -129.87,21.14 -268.85,31.71 -413.77,31.71l-919.89 0 0 -1631.16 919.89 0c394.19,0 676.54,64.89 845.76,194.76z"/>
   <polygon class="fil2" points="39838.28,10013.38 42569.91,10013.38 42569.91,8780.89 39838.28,8780.89 "/>
   <polygon class="fil2" points="39838.28,12631.98 41736.14,12623.38 41736.14,11390.89 39838.28,11390.89 "/>
   <polygon class="fil2" points="39838.28,15523.37 42678.69,15523.37 42678.69,14290.87 39838.28,14290.87 "/>
   <polygon class="fil2" points="38047.69,15523.37 39488.26,15523.37 39488.26,8780.89 38047.69,8780.89 "/>
   <polygon class="fil1" points="47934.61,15523.41 49284.93,15523.41 49284.93,8780.89 47907.42,8780.89 47907.42,13004.07 45469.67,8780.89 44010.66,8780.89 44010.66,15523.41 45388.17,15523.41 45388.17,11100.9 "/>
   <path class="fil1" d="M54849.19 15523.41l1114.61 0 0 -3489.03 -2655.3 0 0 1232.44 1241.59 0c-30.16,300.56 -144.97,552.75 -344.31,755.15 -229.63,240.16 -531.75,359.5 -906.26,359.5 -273.47,0 -497.02,-72.44 -670.63,-218.96 -173.71,-146.48 -306.6,-329.3 -401.74,-548.36 -93.67,-218.93 -158.65,-456.06 -191.83,-708.39 -33.27,-252.19 -49.88,-483.24 -49.88,-690.17 0,-200.89 13.59,-433.54 40.77,-697.77 27.23,-265.83 86.12,-516.56 176.78,-753.69 90.61,-238.74 218.92,-438.07 385.13,-599.66 166.16,-161.58 388.15,-241.67 666.06,-241.67 350.39,0 614.76,80.08 792.95,240.11 178.24,160.12 336.85,394.19 475.73,702.39l1341.31 -353.51c-120.85,-362.38 -262.9,-656.99 -425.94,-883.56 -163.14,-226.56 -356.44,-407.82 -579.98,-545.2 -441.09,-261.34 -915.36,-392.77 -1422.81,-392.77 -537.7,0 -992.38,98.25 -1362.41,294.57 -370.07,196.36 -669.03,459.12 -894.13,788.46 -225.01,329.21 -386.69,709.85 -486.31,1141.84 -98.2,431.99 -148.08,886.58 -148.08,1363.87 0,434.96 49.88,853.36 149.55,1255.19 99.71,401.74 258.28,756.62 475.83,1064.82 217.46,308.07 498.34,554.31 842.74,738.5 344.4,184.28 761.24,276.49 1250.57,276.49 326.32,0 613.24,-45.3 860.95,-135.96 247.7,-89.14 489.37,-249.26 725.04,-477.29l0 522.64z"/>
   <polygon class="fil1" points="57531.58,15523.41 62162.44,15523.41 62162.44,14290.83 58972.46,14290.83 58972.46,12632.44 61219.94,12623.43 61219.94,11390.89 58972.46,11390.89 58972.46,10013.47 62053.62,10013.47 62053.62,8780.89 57531.58,8780.89 "/>
   <path class="fil1" d="M67054.51 15523.41l1605.54 0 -1462.07 -2963.5c373.09,-132.89 660.06,-345.86 860.95,-638.87 200.85,-293.01 302.03,-638.87 302.03,-1037.59 0,-344.4 -52.85,-647.98 -158.52,-910.79 -104.24,-262.76 -252.24,-481.82 -442.56,-657 -188.81,-175.27 -419.86,-308.2 -690.31,-398.81 -270.31,-90.61 -570.87,-135.96 -903.19,-135.96l-2699.05 0 0 6742.52 1440.93 0 0 -2664.41 919.85 0 1226.41 2664.41zm-379.13 -5306.07c78.57,64.98 138.98,151.01 181.26,256.81 42.28,107.17 63.43,237.14 63.43,389.61 0,172.24 -33.18,308.16 -99.67,407.82 -66.45,101.18 -154.04,178.2 -262.76,231.05 -108.82,52.94 -232.65,87.59 -371.63,101.22 -138.93,15.15 -277.91,22.7 -416.8,22.7l-860.95 0 0 -1613.09 1005.88 0c350.49,0 604.14,67.91 761.24,203.87z"/>
  </g>
 </g>
</svg>
