<?xml version="1.0" encoding="utf-8"?>
<!-- Generator: Adobe Illustrator 16.0.0, SVG Export Plug-In . SVG Version: 6.00 Build 0)  -->
<!DOCTYPE svg PUBLIC "-//W3C//DTD SVG 1.1//EN" "http://www.w3.org/Graphics/SVG/1.1/DTD/svg11.dtd">
<svg version="1.1" id="Layer_1" xmlns="http://www.w3.org/2000/svg" xmlns:xlink="http://www.w3.org/1999/xlink" x="0px" y="0px"
	 width="612px" height="612px" viewBox="0 90 612 612" style="enable-background:new 0 90 612 612;" xml:space="preserve">
<g transform="translate(1 1)">
	<g>
		<g>
			<path d="M605.088,464.36c-18.36-24.479-36.72-24.479-81.601-1.02l-87.72,54.06c-12.24,7.14-39.78,9.18-65.28,9.18
				c5.101-9.18,3.061-20.4-6.12-33.66c-16.319-23.46-43.859-37.739-73.439-37.739h-39.78c-21.42,0-41.82-6.12-58.14-18.36
				c-36.805-27.604-94.358,2.433-122.4,20.348v-21.367H-0.792V701h71.399v-30.6h132.6c20.4,0,41.82-2.041,62.22-3.061l132.6-20.4
				c5.101,0,10.199-1.02,14.28-2.04c12.24-2.041,23.461-8.16,33.66-17.341l154.02-122.399
				C612.228,494.96,614.268,476.601,605.088,464.36z M50.207,680.6h-30.6V456.2h30.6v15.3v198.9V680.6z M587.748,491.9
				L432.707,612.26l-1.02,1.02c-7.14,6.12-14.28,10.2-22.439,11.221h-1.02c-4.08,1.02-7.14,1.02-11.221,1.02l-134.64,20.4
				c-19.38,3.06-39.78,4.08-59.16,4.08H70.607V481.699c24.48-17.34,81.601-49.979,110.16-27.54
				c19.379,14.281,44.88,22.44,70.38,22.44h39.78c23.46,0,44.88,10.199,58.14,30.6c4.08,6.12,5.101,12.24,4.08,14.28
				c-3.061,5.101-15.3,7.14-28.56,8.16c-1.375,0-2.745,0-4.08,0c-2.63,0-5.109,0-7.14,0h-91.8c-31.62,0-51,15.301-51,40.8
				c0,6.12,4.08,10.199,10.2,10.199s10.2-4.079,10.2-10.199c0-5.101,0-20.4,30.6-20.4h90.78c2.114,0,4.735,0,8.16,0
				c1.532,0,3.208,0,5.101,0c1.02,0,3.06,0,5.101,0c47.94,1.02,92.819,0,116.279-12.24l87.721-54.06
				c42.84-21.421,46.92-16.32,55.08-4.08C591.827,482.721,591.827,488.841,587.748,491.9z"/>
			<path d="M78.768,411.32c2.041,2.039,5.1,4.079,8.16,4.079h436.56c4.08,0,7.14-2.04,8.161-5.101l36.72-51
				c2.04-3.06,3.06-7.14,1.02-10.2c-2.04-3.06-5.101-5.1-9.18-5.1h-20.635c-5.2-121.425-102.741-218.966-224.165-224.166v-10.434
				h20.4c6.119,0,10.199-4.08,10.199-10.2S341.928,89,335.808,89h-61.2c-6.12,0-10.2,4.08-10.2,10.2c0,6.12,4.08,10.2,10.2,10.2
				h20.4v10.434c-121.424,5.2-218.966,102.741-224.165,224.166H50.207c-4.08,0-8.16,3.06-9.18,6.12c-1.02,3.06-1.02,7.14,1.02,10.2
				L78.768,411.32z M305.208,140c115.261,0,209.1,90.78,214.2,204h-428.4C97.128,230.78,190.967,140,305.208,140z M80.807,364.4
				h448.8h10.2L518.387,395H92.027l-21.42-30.6H80.807z"/>
			<path d="M305.208,160.399c-68.34,0-132.6,36.72-168.3,96.9c-2.041,5.101-1.02,11.221,4.08,14.281c2.04,1.02,3.06,1.02,5.1,1.02
				c4.08,0,7.14-2.041,9.18-5.101c30.6-53.04,88.74-86.7,149.94-86.7c6.12,0,10.199-4.08,10.199-10.199
				C315.407,164.48,311.328,160.399,305.208,160.399z"/>
		</g>
	</g>
</g>
</svg>
