<?xml version="1.0" encoding="utf-8"?>
<!-- Generator: Adobe Illustrator 16.0.0, SVG Export Plug-In . SVG Version: 6.00 Build 0)  -->
<!DOCTYPE svg PUBLIC "-//W3C//DTD SVG 1.1//EN" "http://www.w3.org/Graphics/SVG/1.1/DTD/svg11.dtd">
<svg version="1.1" id="Layer_3" xmlns="http://www.w3.org/2000/svg" xmlns:xlink="http://www.w3.org/1999/xlink" x="0px" y="0px"
	 width="512px" height="512px" viewBox="0 0 512 512" style="enable-background:new 0 0 512 512;" xml:space="preserve">
<path d="M430.592,317.099c4.267-0.512,7.51-4.181,7.51-8.448v-21.333c0-4.693-3.84-8.533-8.533-8.533s-8.533,3.84-8.533,8.533
	v13.824l-25.43,3.157c-3.755,0.427-6.741,3.242-7.339,6.997c-3.413,19.114-10.752,36.864-21.76,52.736
	c-2.134,3.071-2.048,7.168,0.256,10.154l15.787,20.139l-19.542,19.542l-20.139-15.787c-2.986-2.305-7.082-2.39-10.154-0.256
	c-15.872,11.008-33.621,18.347-52.736,21.846c-3.669,0.682-6.485,3.669-6.997,7.338l-3.157,25.259h-27.648l-3.157-25.43
	c-0.427-3.669-3.243-6.655-6.997-7.339c-19.115-3.412-36.864-10.752-52.736-21.845c-3.072-2.134-7.168-2.048-10.154,0.256
	l-20.139,15.786l-19.542-19.541l15.787-20.139c2.304-2.986,2.389-7.082,0.256-10.154c-11.008-15.872-18.347-33.536-21.76-52.736
	c-0.683-3.669-3.669-6.484-7.339-6.997l-25.429-3.157v-13.824c0-4.693-3.84-8.533-8.533-8.533s-8.534,3.84-8.534,8.533v21.334
	c0,4.266,3.243,7.936,7.51,8.447l26.794,3.328c3.84,17.152,10.496,33.28,19.797,47.957l-16.64,21.248
	c-2.645,3.414-2.389,8.192,0.683,11.265l30.208,30.208c3.072,3.071,7.936,3.328,11.264,0.683l21.248-16.64
	c14.763,9.386,30.805,16.042,47.957,19.797l3.328,26.795c0.512,4.267,4.182,7.509,8.448,7.509h42.752
	c4.352,0,7.936-3.242,8.447-7.509l3.328-26.795c17.152-3.84,33.195-10.496,47.958-19.797l21.419,16.811
	c3.413,2.645,8.277,2.389,11.264-0.683l30.208-30.208c3.072-3.072,3.328-7.852,0.683-11.265l-16.64-21.248
	c9.387-14.763,16.042-30.806,19.797-47.957L430.592,317.099z M337.579,287.232c0,44.971-36.608,81.578-81.579,81.578
	s-81.579-36.607-81.579-81.578c0-4.693-3.84-8.533-8.533-8.533s-8.534,3.84-8.534,8.533c0,54.357,44.288,98.645,98.646,98.645
	s98.646-44.287,98.646-98.645c0-4.693-3.84-8.533-8.533-8.533S337.579,282.539,337.579,287.232z M95.232,214.699
	c-12.288,3.328-21.333,14.592-21.333,27.904c0,15.958,12.971,28.929,28.843,28.929h306.433c15.957,0,28.842-12.971,28.842-28.929
	c0-13.312-9.13-24.576-21.418-27.904c-2.987-64.427-43.861-120.32-104.107-142.848l0.769-5.291
	c0.854-5.973-0.938-12.117-4.949-16.64c-3.926-4.608-9.729-7.253-15.787-7.253h-73.045c-6.144,0-11.861,2.646-15.872,7.253
	s-5.803,10.667-4.949,16.64l0.768,5.291C139.093,94.379,98.219,150.357,95.232,214.699z M201.813,89.088l11.861,84.395
	c0.683,4.693,4.949,7.937,9.643,7.253c4.693-0.683,7.936-4.949,7.253-9.643L215.552,64.171c-0.256-1.536,0.512-2.56,0.939-3.072
	c0.427-0.512,1.365-1.365,2.987-1.365h73.045c1.536,0,2.476,0.854,2.987,1.365c0.426,0.512,1.109,1.536,0.938,3.072L281.43,171.179
	c-0.684,4.693,2.56,8.96,7.253,9.643c0.427,0.085,0.769,0.085,1.194,0.085c4.182,0,7.851-3.072,8.448-7.339l11.861-84.395
	c54.017,21.845,89.686,74.069,89.686,133.12c0,4.693,3.84,8.533,8.533,8.533h0.938c6.485,0,11.776,5.291,11.776,11.776
	s-5.291,11.861-11.776,11.861H102.741c-6.485,0-11.776-5.291-11.776-11.861c0-6.485,5.291-11.776,12.629-11.776
	c4.693,0,8.533-3.84,8.533-8.533C112.128,163.157,147.797,110.934,201.813,89.088L201.813,89.088z"/>
</svg>
