<svg id="Layer_5" enable-background="new 0 0 62 62" height="512" viewBox="0 0 62 62" width="512" xmlns="http://www.w3.org/2000/svg"><g><path d="m60 52v-14h-2v-38h-10v20h-4v6h-2v12h-2v-8h-2v-18c1.103 0 2-.897 2-2v-2c0-1.103-.897-2-2-2h-10c-1.103 0-2 .897-2 2v2c0 1.103.897 2 2 2v18h-2v-4-6-4c0-2.748-5.702-4-11-4s-11 1.252-11 4v4 6 16.697l-2.32 3.48c-1.099 1.649-1.68 3.567-1.68 5.548v.275c0 5.514 4.486 10 10 10h52v-10zm-4 0v-10h-12v10h-2v-10h-20v10h-2v-.275c0-1.98-.581-3.898-1.68-5.547l-4.118-6.178h43.798v12zm-2 0h-8v-8h8zm-30 0v-8h4v8zm6-8h4v8h-4zm6 0h4v8h-4zm-10-6h-2v-2h2zm8 0h-2v-2h2zm16-36h6v36h-2v-12h-2v-6h-2zm-4 20h4v4h-4zm-2 6h8v10h-8zm-8 10v-4h-6v4h-2v-4h-6v4h-2v-6h18v6zm-8-30h10l.001 2h-10.001zm2 4h6v18h-6zm-6 12h-18v-2h18zm-18.001-7.985c.152-.555 3.15-2.015 9.001-2.015s8.849 1.46 9 2v4h-18.001zm0 9.985h18.001v4h-6v8h-5.132l-.482-.723c-.533-.799-1.425-1.277-2.386-1.277s-1.853.478-2.387 1.277l-1.613 2.421zm-3.999 26v-.275c0-1.585.465-3.119 1.344-4.438l5.934-8.9c.323-.484 1.122-.484 1.445 0l5.934 8.9c.878 1.318 1.343 2.853 1.343 4.438v.275c0 4.411-3.589 8-8 8s-8-3.589-8-8zm58 8h-44.026c1.928-1.443 3.326-3.557 3.824-6h40.202z"/><path d="m32 18h2v2h-2z"/><path d="m32 14h2v2h-2z"/><path d="m32 22h2v2h-2z"/><path d="m32 26h2v2h-2z"/><path d="m47 30h2v2h-2z"/><path d="m47 34h2v2h-2z"/><path d="m52 16h2v2h-2z"/><path d="m52 8h2v2h-2z"/><path d="m52 12h2v2h-2z"/><path d="m52 4h2v2h-2z"/><path d="m6 52h-2c0 3.309 2.691 6 6 6v-2c-2.206 0-4-1.794-4-4z"/></g></svg>