<?xml version="1.0" encoding="utf-8"?>
<!-- Generator: Adobe Illustrator 16.0.0, SVG Export Plug-In . SVG Version: 6.00 Build 0)  -->
<!DOCTYPE svg PUBLIC "-//W3C//DTD SVG 1.1//EN" "http://www.w3.org/Graphics/SVG/1.1/DTD/svg11.dtd">
<svg version="1.1" id="Layer_3" xmlns="http://www.w3.org/2000/svg" xmlns:xlink="http://www.w3.org/1999/xlink" x="0px" y="0px"
	 width="512px" height="512px" viewBox="0 0 512 512" enable-background="new 0 0 512 512" xml:space="preserve">
<linearGradient id="SVGID_1_" gradientUnits="userSpaceOnUse" x1="413.7041" y1="49.8145" x2="85.4585" y2="378.0602" gradientTransform="matrix(1 0 0 -1 8.3398 488.04)">
	<stop  offset="0" style="stop-color:#2AB9A5"/>
	<stop  offset="1" style="stop-color:#97C74E"/>
</linearGradient>
<path fill="url(#SVGID_1_)" d="M466.304,330.617c5.093-0.611,8.962-4.99,8.962-10.083v-25.46c0-5.602-4.582-10.185-10.183-10.185
	c-5.602,0-10.185,4.583-10.185,10.185v16.499l-30.35,3.767c-4.481,0.511-8.045,3.869-8.76,8.352
	c-4.071,22.812-12.831,43.996-25.97,62.939c-2.547,3.665-2.444,8.554,0.306,12.117l18.841,24.036l-23.322,23.323l-24.034-18.842
	c-3.564-2.75-8.453-2.854-12.12-0.305c-18.942,13.137-40.125,21.896-62.938,26.071c-4.379,0.813-7.739,4.379-8.351,8.758
	l-3.768,30.146h-32.997l-3.769-30.35c-0.509-4.379-3.871-7.942-8.351-8.759c-22.813-4.071-43.996-12.832-62.939-26.072
	c-3.667-2.546-8.555-2.443-12.119,0.307l-24.035,18.841l-23.323-23.322l18.841-24.034c2.75-3.564,2.851-8.453,0.306-12.12
	c-13.138-18.941-21.897-40.023-25.971-62.939c-0.814-4.378-4.379-7.738-8.759-8.351l-30.349-3.768v-16.499
	c0-5.601-4.583-10.183-10.184-10.183c-5.601,0-10.186,4.582-10.186,10.183v25.461c0,5.093,3.871,9.473,8.963,10.082l31.979,3.972
	c4.582,20.472,12.526,39.72,23.627,57.236l-19.86,25.358c-3.157,4.075-2.851,9.776,0.815,13.445l36.053,36.052
	c3.667,3.665,9.471,3.973,13.443,0.816l25.359-19.861c17.619,11.203,36.765,19.146,57.235,23.629l3.971,31.979
	c0.612,5.092,4.992,8.961,10.083,8.961h51.023c5.194,0,9.473-3.869,10.082-8.961l3.971-31.979
	c20.472-4.584,39.618-12.526,57.238-23.629l25.563,20.064c4.072,3.156,9.877,2.851,13.442-0.815l36.052-36.053
	c3.667-3.665,3.973-9.371,0.815-13.443l-19.859-25.359c11.203-17.619,19.146-36.767,23.627-57.234L466.304,330.617z
	 M355.295,294.972c0,53.671-43.691,97.362-97.363,97.362c-53.671,0-97.362-43.691-97.362-97.362c0-5.601-4.583-10.184-10.184-10.184
	c-5.602,0-10.186,4.583-10.186,10.184c0,64.873,52.856,117.729,117.731,117.729c64.876,0,117.733-52.855,117.733-117.729
	c0-5.601-4.584-10.184-10.185-10.184C359.879,284.788,355.295,289.371,355.295,294.972z M66.06,208.405
	c-14.665,3.971-25.46,17.415-25.46,33.302c0,19.044,15.481,34.526,34.424,34.526h365.72c19.044,0,34.421-15.481,34.421-34.526
	c0-15.888-10.896-29.331-25.562-33.302c-3.563-76.892-52.346-143.6-124.248-170.486l0.918-6.315
	c1.02-7.128-1.12-14.461-5.906-19.859c-4.687-5.5-11.611-8.656-18.842-8.656h-87.178c-7.333,0-14.155,3.158-18.943,8.656
	c-4.787,5.499-6.926,12.731-5.906,19.859l0.917,6.315C118.407,64.806,69.625,131.614,66.06,208.405z M193.261,58.491l14.156,100.723
	c0.815,5.601,5.907,9.473,11.509,8.656c5.601-0.815,9.472-5.906,8.656-11.508L209.659,28.753c-0.306-1.833,0.611-3.055,1.121-3.666
	s1.629-1.629,3.565-1.629h87.177c1.833,0,2.955,1.019,3.564,1.629c0.508,0.611,1.324,1.833,1.12,3.666l-17.924,127.712
	c-0.816,5.601,3.056,10.694,8.657,11.509c0.509,0.102,0.917,0.102,1.424,0.102c4.991,0,9.369-3.667,10.083-8.759l14.155-100.724
	c64.469,26.072,107.038,88.4,107.038,158.876c0,5.601,4.583,10.184,10.185,10.184h1.119c7.74,0,14.055,6.315,14.055,14.055
	c0,7.739-6.314,14.155-14.055,14.155H75.022c-7.74,0-14.055-6.314-14.055-14.155c0-7.74,6.314-14.055,15.072-14.055
	c5.601,0,10.184-4.583,10.184-10.184C86.225,146.891,128.795,84.564,193.261,58.491L193.261,58.491z"/>
</svg>
