<?xml version="1.0" encoding="utf-8"?>
<!-- Generator: Adobe Illustrator 16.0.0, SVG Export Plug-In . SVG Version: 6.00 Build 0)  -->
<!DOCTYPE svg PUBLIC "-//W3C//DTD SVG 1.1//EN" "http://www.w3.org/Graphics/SVG/1.1/DTD/svg11.dtd">
<svg version="1.1" id="light" xmlns="http://www.w3.org/2000/svg" xmlns:xlink="http://www.w3.org/1999/xlink" x="0px" y="0px"
	 width="512px" height="512px" viewBox="0 0 512 512" style="enable-background:new 0 0 512 512;" xml:space="preserve">
<linearGradient id="SVGID_1_" gradientUnits="userSpaceOnUse" x1="437.0137" y1="437.0352" x2="74.2207" y2="74.2422">
	<stop  offset="0" style="stop-color:#2AB9A5"/>
	<stop  offset="1" style="stop-color:#97C74E"/>
</linearGradient>
<path style="fill:url(#SVGID_1_);stroke:#2AB9A5;stroke-miterlimit:10;" d="M256,64c-5.888,0-10.667-4.779-10.667-10.667V10.667
	C245.333,4.779,250.112,0,256,0c5.889,0,10.666,4.779,10.666,10.667v42.667C266.666,59.221,261.889,64,256,64z M399.317,123.35
	c-2.73,0-5.461-1.045-7.552-3.115c-4.16-4.16-4.16-10.923,0-15.083l30.165-30.165c4.16-4.16,10.923-4.16,15.083,0
	c4.16,4.16,4.16,10.922,0,15.083l-30.166,30.166C404.778,122.304,402.048,123.35,399.317,123.35z M501.333,266.666h-42.666
	c-5.889,0-10.667-4.777-10.667-10.666c0-5.888,4.778-10.667,10.667-10.667h42.666c5.889,0,10.667,4.778,10.667,10.667
	C512,261.889,507.222,266.666,501.333,266.666z M429.482,440.149c-2.73,0-5.461-1.045-7.552-3.115l-30.165-30.165
	c-4.16-4.16-4.16-10.922,0-15.082s10.922-4.16,15.082,0l30.166,30.165c4.16,4.16,4.16,10.923,0,15.082
	C434.944,439.104,432.213,440.149,429.482,440.149z M256,512c-5.888,0-10.667-4.778-10.667-10.667v-42.666
	c0-5.889,4.778-10.667,10.667-10.667c5.889,0,10.666,4.778,10.666,10.667v42.666C266.666,507.222,261.889,512,256,512z
	 M82.518,440.149c-2.731,0-5.461-1.045-7.552-3.115c-4.16-4.159-4.16-10.922,0-15.082l30.166-30.165c4.16-4.16,10.922-4.16,15.083,0
	s4.16,10.922,0,15.082l-30.166,30.165C87.979,439.104,85.248,440.149,82.518,440.149z M53.333,266.666H10.667
	C4.779,266.666,0,261.889,0,256c0-5.888,4.779-10.667,10.667-10.667h42.667C59.221,245.333,64,250.112,64,256
	C64,261.889,59.221,266.666,53.333,266.666z M112.683,123.35c-2.73,0-5.461-1.045-7.552-3.115L74.987,90.069
	c-4.16-4.16-4.16-10.923,0-15.083c4.16-4.16,10.922-4.16,15.083,0l30.166,30.165c4.16,4.16,4.16,10.923,0,15.083
	C118.144,122.304,115.414,123.349,112.683,123.35L112.683,123.35z M225.557,426.667c-1.258,0-2.496-0.214-3.733-0.662
	c-4.672-1.749-7.51-6.485-6.848-11.392l18.197-137.279H160c-4.032,0-7.723-2.283-9.536-5.889c-1.813-3.605-1.429-7.936,1.003-11.179
	l128-170.667c2.965-3.968,8.234-5.376,12.736-3.414c4.521,1.941,7.146,6.699,6.336,11.563l-19.285,115.584H352
	c3.926,0,7.53,2.155,9.387,5.61c1.855,3.456,1.664,7.638-0.47,10.944l-126.442,192C232.448,424.938,229.056,426.667,225.557,426.667
	L225.557,426.667z M181.333,256h64c3.093,0,5.995,1.344,8.021,3.648c2.027,2.282,2.965,5.375,2.56,8.426L242.24,371.285
	l89.963-136.619h-65.537c-3.135,0-6.101-1.365-8.148-3.776c-2.027-2.389-2.901-5.568-2.368-8.64l14.144-84.864L181.333,256z"/>
</svg>
