<?xml version="1.0" encoding="utf-8"?>
<!-- Generator: Adobe Illustrator 16.0.0, SVG Export Plug-In . SVG Version: 6.00 Build 0)  -->
<!DOCTYPE svg PUBLIC "-//W3C//DTD SVG 1.1//EN" "http://www.w3.org/Graphics/SVG/1.1/DTD/svg11.dtd">
<svg version="1.1" id="Layer_5" xmlns="http://www.w3.org/2000/svg" xmlns:xlink="http://www.w3.org/1999/xlink" x="0px" y="0px"
	 width="512px" height="512px" viewBox="0 0 512 512" style="enable-background:new 0 0 512 512;" xml:space="preserve">
<linearGradient id="SVGID_1_" gradientUnits="userSpaceOnUse" x1="515.8506" y1="508.1514" x2="82.9714" y2="75.2722">
	<stop  offset="0" style="stop-color:#2AB9A5"/>
	<stop  offset="1" style="stop-color:#97C74E"/>
</linearGradient>
<path style="fill:url(#SVGID_1_);" d="M495.483,429.419V313.807h-16.516V0h-82.581v165.161h-33.032v49.548h-16.516v99.097h-16.517
	v-66.064h-16.516V99.097c9.108,0,16.516-7.407,16.516-16.516V66.064c0-9.108-7.407-16.516-16.516-16.516h-82.581
	c-9.108,0-16.516,7.408-16.516,16.516v16.516c0,9.109,7.408,16.516,16.516,16.516v148.646h-16.516v-33.033v-49.548v-33.032
	c0-22.693-47.087-33.032-90.838-33.032c-43.751,0-90.839,10.339-90.839,33.032v33.032v49.548v137.885l-19.159,28.737
	C4.798,394.95,0,410.789,0,427.148v2.271C0,474.954,37.046,512,82.581,512H512v-82.581H495.483z M462.451,429.419v-82.58h-99.097
	v82.58h-16.516v-82.58H181.677v82.58h-16.516v-2.271c0-16.352-4.798-32.189-13.874-45.808l-34.006-51.019h361.687v99.097H462.451z
	 M445.936,429.419h-66.064v-66.063h66.064V429.419z M198.193,429.419v-66.063h33.032v66.063H198.193z M247.742,363.355h33.032
	v66.063h-33.032V363.355z M297.291,363.355h33.031v66.063h-33.031V363.355z M214.709,313.807h-16.516V297.29h16.516V313.807z
	 M280.774,313.807h-16.517V297.29h16.517V313.807z M412.903,16.516h49.548v297.291h-16.516v-99.097h-16.517v-49.548h-16.516V16.516z
	 M379.871,181.677h33.032v33.032h-33.032V181.677z M363.354,231.226h66.064v82.581h-66.064V231.226z M297.291,313.807v-33.032
	h-49.549v33.032h-16.517v-33.032h-49.548v33.032h-16.516v-49.549h148.646v49.549H297.291z M231.226,66.064h82.581l0.008,16.516
	h-82.589V66.064z M247.742,99.097h49.549v148.646h-49.549V99.097z M198.193,198.193H49.548v-16.516h148.645V198.193z M49.54,132.253
	c1.255-4.583,26.013-16.64,74.331-16.64s73.076,12.057,74.322,16.516v33.032H49.54V132.253z M49.54,214.709h148.653v33.033h-49.548
	v66.064h-42.38l-3.98-5.971c-4.401-6.598-11.768-10.546-19.704-10.546s-15.302,3.948-19.712,10.546l-13.32,19.992L49.54,214.709z
	 M16.516,429.419v-2.271c0-13.089,3.84-25.757,11.099-36.649l49.003-73.497c2.667-3.996,9.266-3.996,11.933,0l49.003,73.497
	c7.25,10.884,11.09,23.561,11.09,36.649v2.271c0,36.427-29.638,66.064-66.064,66.064S16.516,465.846,16.516,429.419L16.516,429.419z
	 M495.483,495.483H131.914c15.922-11.916,27.467-29.373,31.579-49.548h331.99V495.483z M264.258,148.645h16.517v16.516h-16.517
	V148.645z M264.258,115.613h16.517v16.516h-16.517V115.613z M264.258,181.677h16.517v16.516h-16.517V181.677z M264.258,214.709
	h16.517v16.516h-16.517V214.709z M388.129,247.742h16.517v16.516h-16.517V247.742z M388.129,280.774h16.517v16.516h-16.517V280.774z
	 M429.419,132.129h16.517v16.516h-16.517V132.129z M429.419,66.064h16.517v16.516h-16.517V66.064z M429.419,99.097h16.517v16.516
	h-16.517V99.097z M429.419,33.032h16.517v16.516h-16.517V33.032z M49.548,429.419H33.032c0,27.326,22.223,49.549,49.548,49.549
	v-16.517C64.363,462.451,49.548,447.637,49.548,429.419z"/>
</svg>
