<?xml version="1.0" encoding="utf-8"?>
<!-- Generator: Adobe Illustrator 16.0.0, SVG Export Plug-In . SVG Version: 6.00 Build 0)  -->
<!DOCTYPE svg PUBLIC "-//W3C//DTD SVG 1.1//EN" "http://www.w3.org/Graphics/SVG/1.1/DTD/svg11.dtd">
<svg version="1.1" id="Layer_1" xmlns="http://www.w3.org/2000/svg" xmlns:xlink="http://www.w3.org/1999/xlink" x="0px" y="0px"
	 width="612px" height="612px" viewBox="0 0 612 612" enable-background="new 0 0 612 612" xml:space="preserve">
<linearGradient id="SVGID_1_" gradientUnits="userSpaceOnUse" x1="440.5576" y1="19.6201" x2="51.7351" y2="408.4426" gradientTransform="matrix(1 0 0 -1 9.3398 589.04)">
	<stop  offset="0" style="stop-color:#2AB9A5"/>
	<stop  offset="1" style="stop-color:#97C74E"/>
</linearGradient>
<path fill="url(#SVGID_1_)" d="M606.088,375.36c-18.359-24.479-36.72-24.479-81.601-1.021L436.767,428.4
	c-12.239,7.14-39.779,9.18-65.279,9.18c5.101-9.18,3.061-20.4-6.12-33.66c-16.319-23.46-43.859-37.739-73.439-37.739h-39.78
	c-21.42,0-41.82-6.119-58.14-18.359c-36.805-27.604-94.358,2.433-122.4,20.348v-21.367h-71.4V612h71.399v-30.6h132.6
	c20.4,0,41.82-2.041,62.22-3.062l132.601-20.399c5.101,0,10.198-1.021,14.279-2.04c12.24-2.041,23.461-8.16,33.66-17.342
	l154.021-122.398C613.229,405.96,615.268,387.601,606.088,375.36z M51.207,591.6h-30.6V367.2h30.6v15.3v198.9V591.6z M588.748,402.9
	L433.707,523.26l-1.02,1.021c-7.141,6.12-14.28,10.2-22.439,11.221h-1.02c-4.08,1.021-7.141,1.021-11.222,1.021l-134.64,20.399
	c-19.38,3.061-39.78,4.08-59.16,4.08h-132.6V392.699c24.48-17.34,81.601-49.979,110.16-27.54
	c19.379,14.281,44.88,22.439,70.38,22.439h39.78c23.46,0,44.88,10.199,58.141,30.601c4.08,6.12,5.101,12.24,4.08,14.28
	c-3.062,5.101-15.301,7.14-28.561,8.159c-1.375,0-2.745,0-4.08,0c-2.63,0-5.108,0-7.14,0h-91.8c-31.62,0-51,15.302-51,40.8
	c0,6.12,4.08,10.199,10.2,10.199s10.2-4.079,10.2-10.199c0-5.101,0-20.399,30.6-20.399h90.78c2.114,0,4.735,0,8.16,0
	c1.532,0,3.208,0,5.102,0c1.02,0,3.06,0,5.101,0c47.94,1.02,92.819,0,116.279-12.24l87.721-54.06
	c42.84-21.421,46.92-16.32,55.08-4.08C592.827,393.721,592.827,399.841,588.748,402.9z M79.768,322.32
	c2.041,2.039,5.1,4.078,8.16,4.078h436.56c4.08,0,7.14-2.039,8.161-5.101l36.72-51c2.04-3.06,3.06-7.14,1.02-10.2
	c-2.04-3.06-5.101-5.1-9.18-5.1h-20.635c-5.2-121.425-102.741-218.966-224.165-224.166V20.398h20.399
	c6.119,0,10.199-4.08,10.199-10.2c0-6.12-4.08-10.198-10.2-10.198h-61.2c-6.12,0-10.2,4.08-10.2,10.2c0,6.12,4.08,10.2,10.2,10.2
	h20.4v10.434C174.584,36.034,77.042,133.575,71.843,255H51.207c-4.08,0-8.16,3.061-9.18,6.12s-1.02,7.14,1.02,10.2L79.768,322.32z
	 M306.208,51c115.261,0,209.1,90.78,214.2,204h-428.4C98.128,141.78,191.967,51,306.208,51z M81.807,275.4h448.8h10.199l-21.42,30.6
	H93.027l-21.42-30.6H81.807z M306.208,71.399c-68.34,0-132.6,36.72-168.3,96.9c-2.041,5.101-1.02,11.221,4.08,14.281
	c2.04,1.02,3.06,1.02,5.1,1.02c4.08,0,7.14-2.041,9.18-5.101c30.6-53.04,88.74-86.7,149.94-86.7c6.12,0,10.199-4.08,10.199-10.199
	C316.407,75.48,312.328,71.399,306.208,71.399z"/>
</svg>
